<?xml version="1.0" standalone="no"?><!DOCTYPE svg PUBLIC "-//W3C//DTD SVG 1.1//EN" "http://www.w3.org/Graphics/SVG/1.1/DTD/svg11.dtd"><svg t="1770206776491" class="icon" viewBox="0 0 1024 1024" version="1.1" xmlns="http://www.w3.org/2000/svg" p-id="9015" xmlns:xlink="http://www.w3.org/1999/xlink" width="200" height="200"><path d="M582.208 21.12a111.232 111.232 0 0 1 89.344 10.24l234.112 135.168c27.328 15.744 47.104 42.24 53.504 72.192a93.312 93.312 0 0 1-30.4 91.328 249.472 249.472 0 0 1-116.48 56.64l-45.056 157.568a385.664 385.664 0 0 1 25.344 304.32c-23.68 70.592-103.36 84.288-155.776 54.016l-192.64-111.168-111.168 192.64a48 48 0 1 1-83.136-48.064l111.232-192.64-192.64-111.104c-52.352-30.272-80.384-106.176-31.104-161.92a385.92 385.92 0 0 1 276.224-130.24l113.92-117.824a250.688 250.688 0 0 1-9.152-129.28c7.168-37.248 33.472-62.016 63.872-71.872z m29.12 91.52z m1.088-0.384a155.776 155.776 0 0 0 2.688 68.288c2.816 10.56 6.72 20.736 11.712 30.4l15.616 30.592-188.416 194.88-20.992-0.448a289.92 289.92 0 0 0-223.68 97.92 4.608 4.608 0 0 0-1.28 2.048 6.592 6.592 0 0 0 0.192 2.944 16.96 16.96 0 0 0 8.192 10.24l468.352 270.336a16.96 16.96 0 0 0 12.928 2.048 6.528 6.528 0 0 0 2.56-1.344 4.608 4.608 0 0 0 1.28-2.112 289.92 289.92 0 0 0-27.072-242.688l-10.88-17.92 74.56-260.672 34.24-1.728a154.752 154.752 0 0 0 92.736-36.864 12.416 12.416 0 0 0-1.92-3.712 18.176 18.176 0 0 0-5.568-4.8L623.488 114.432a18.24 18.24 0 0 0-6.912-2.304 12.48 12.48 0 0 0-4.16 0.128z" p-id="9016"></path></svg>