<svg xmlns="http://www.w3.org/2000/svg" xmlns:xlink="http://www.w3.org/1999/xlink" width="253.3199920654297" height="48.779998779296875" viewBox="0 0 253.3199920654297 48.779998779296875" fill="none"><g ><path     fill="url(#linear_fill_0_2_0)"  d="M12.06 47.94L22.8 47.94L22.8 12.18L34.92 12.18L34.92 3.24001L-5.48363e-06 3.24001L-5.48363e-06 12.18L12.06 12.18L12.06 47.94ZM57.8 48.78C66.44 48.78 74.48 42.18 74.48 30.84C74.48 19.56 66.44 12.96 57.8 12.96C49.1 12.96 41.06 19.56 41.06 30.84C41.06 42.18 49.1 48.78 57.8 48.78ZM57.8 40.14C53.78 40.14 51.98 36.54 51.98 30.84C51.98 25.2 53.78 21.6 57.8 21.6C61.76 21.6 63.56 25.2 63.56 30.84C63.56 36.54 61.76 40.14 57.8 40.14ZM93.52 48.78C98.14 48.78 101.32 46.62 104.14 43.26L104.38 43.26L105.16 47.94L113.86 47.94L113.86 13.8L103.18 13.8L103.18 36.18C101.38 38.7 99.88 39.66 97.48 39.66C94.78 39.66 93.52 38.28 93.52 33.6L93.52 13.8L82.84 13.8L82.84 34.92C82.84 43.44 86.02 48.78 93.52 48.78ZM139.5 48.78C143.1 48.78 147.42 47.7 150.78 44.76L146.64 37.74C144.9 39.12 142.86 40.14 140.7 40.14C136.56 40.14 133.44 36.54 133.44 30.84C133.44 25.2 136.38 21.6 141.12 21.6C142.56 21.6 143.88 22.14 145.44 23.4L150.42 16.62C147.84 14.4 144.6 12.96 140.46 12.96C130.92 12.96 122.52 19.56 122.52 30.84C122.52 42.18 129.9 48.78 139.5 48.78ZM158.66 47.94L169.34 47.94L169.34 25.14C171.38 23.16 172.82 22.08 175.22 22.08C177.92 22.08 179.18 23.4 179.18 28.14L179.18 47.94L189.86 47.94L189.86 26.82C189.86 18.3 186.68 12.96 179.24 12.96C174.62 12.96 171.26 15.3 168.8 17.58L169.34 11.52L169.34 0L158.66 0L158.66 47.94ZM195.34 47.94L206.26 47.94L208.84 37.68L222.04 37.68L224.62 47.94L235.9 47.94L222.04 3.24001L209.2 3.24001L195.34 47.94ZM210.88 29.4L211.84 25.62C212.98 21.18 214.18 15.96 215.26 11.28L215.5 11.28C216.7 15.84 217.84 21.18 219.04 25.62L220 29.4L210.88 29.4ZM242.58 47.94L253.32 47.94L253.32 3.24001L242.58 3.24001L242.58 47.94Z"></path></g><defs><linearGradient id="linear_fill_0_2_0" x1="-1.7400054931640625" y1="21.840003967285156" x2="261.25999450683594" y2="21.840003967285156" gradientUnits="userSpaceOnUse"><stop offset="0" stop-color="#1E2939"  /><stop offset="0.5462" stop-color="#6A7282" stop-opacity="0.5" /><stop offset="0.9907" stop-color="#D1D5DC" stop-opacity="0.23" /></linearGradient></defs></svg>