<svg xmlns="http://www.w3.org/2000/svg" xmlns:xlink="http://www.w3.org/1999/xlink" width="253" height="253" viewBox="0 0 253 253" fill="none"><rect  x="0" y="0" width="253" height="253" rx="25"    fill="#FFFFFF" ></rect><g ><path     fill="url(#linear_fill_0_4_0)"  d="M32.7793 155.8L44.6303 155.8L44.6303 116.341L58.0041 116.341L58.0041 106.476L19.4717 106.476L19.4717 116.341L32.7793 116.341L32.7793 155.8ZM82.1476 156.727C91.6814 156.727 100.553 149.444 100.553 136.931C100.553 124.484 91.6814 117.201 82.1476 117.201C72.5476 117.201 63.6759 124.484 63.6759 136.931C63.6759 149.444 72.5476 156.727 82.1476 156.727ZM82.1476 147.193C77.7117 147.193 75.7255 143.221 75.7255 136.931C75.7255 130.708 77.7117 126.735 82.1476 126.735C86.5172 126.735 88.5034 130.708 88.5034 136.931C88.5034 143.221 86.5172 147.193 82.1476 147.193ZM120.459 156.727C125.557 156.727 129.066 154.344 132.178 150.636L132.443 150.636L133.303 155.8L142.903 155.8L142.903 118.128L131.119 118.128L131.119 142.824C129.132 145.604 127.477 146.664 124.829 146.664C121.85 146.664 120.459 145.141 120.459 139.977L120.459 118.128L108.674 118.128L108.674 141.433C108.674 150.835 112.183 156.727 120.459 156.727ZM170.092 156.727C174.065 156.727 178.832 155.535 182.539 152.291L177.971 144.545C176.051 146.068 173.8 147.193 171.417 147.193C166.848 147.193 163.406 143.221 163.406 136.931C163.406 130.708 166.65 126.735 171.88 126.735C173.469 126.735 174.926 127.331 176.647 128.721L182.142 121.24C179.295 118.79 175.72 117.201 171.152 117.201C160.625 117.201 151.356 124.484 151.356 136.931C151.356 149.444 159.499 156.727 170.092 156.727ZM190.131 155.8L201.916 155.8L201.916 130.641C204.167 128.457 205.756 127.265 208.404 127.265C211.383 127.265 212.774 128.721 212.774 133.952L212.774 155.8L224.559 155.8L224.559 132.495C224.559 123.094 221.05 117.201 212.84 117.201C207.742 117.201 204.034 119.783 201.32 122.299L201.916 115.612L201.916 102.901L190.131 102.901L190.131 155.8Z"></path></g><g ><path     fill="#CFD1D6"  d="M214.385 107.028L217.397 107.028L218.109 104.197L221.75 104.197L222.462 107.028L225.574 107.028L221.75 94.6965L218.208 94.6965L214.385 107.028ZM218.672 101.913L218.937 100.87C219.251 99.6455 219.582 98.2055 219.88 96.9145L219.946 96.9145C220.277 98.1724 220.592 99.6455 220.923 100.87L221.188 101.913L218.672 101.913ZM229.072 107.028L232.035 107.028L232.035 94.6965L229.072 94.6965L229.072 107.028Z"></path></g><defs><linearGradient id="linear_fill_0_4_0" x1="17" y1="127.00003814697266" x2="230" y2="127.00003814697266" gradientUnits="userSpaceOnUse"><stop offset="0" stop-color="#1E2939"  /><stop offset="0.5973" stop-color="#6A7282" stop-opacity="0.5" /><stop offset="0.9907" stop-color="#D1D5DC" stop-opacity="0.3" /></linearGradient></defs></svg>